{
  "accessors": [
    {
      "bufferView": 2,
      "componentType": 5126,
      "count": 65533,
      "max": [
        1586.147216796875,
        1889.199462890625,
        650.0010986328125
      ],
      "min": [
        -1507.1817626953125,
        -68.60112762451172,
        -552.0136108398438
      ],
      "type": "VEC3"
    },
    {
      "bufferView": 2,
      "byteOffset": 786396,
      "componentType": 5126,
      "count": 65533,
      "max": [
        0.9999995827674866,
        0.9999980330467224,
        1.0
      ],
      "min": [
        -0.9999691247940063,
        -0.9999969005584717,
        -1.0
      ],
      "type": "VEC3"
    },
    {
      "bufferView": 3,
      "componentType": 5126,
      "count": 65533,
      "max": [
        0.9999966025352478,
        0.9999997019767761,
        0.9999914765357971,
        1.0
      ],
      "min": [
        -0.9999836087226868,
        -0.9999968409538269,
        -0.9999992847442627,
        -1.0
      ],
      "type": "VEC4"
    },
    {
      "bufferView": 1,
      "componentType": 5126,
      "count": 65533,
      "max": [
        0.9968081712722778,
        0.9846634864807129
      ],
      "min": [
        0.0031919307075440884,
        0.0031919307075440884
      ],
      "type": "VEC2"
    },
    {
      "bufferView": 0,
      "componentType": 5125,
      "count": 328800,
      "type": "SCALAR"
    },
    {
      "bufferView": 2,
      "byteOffset": 1572792,
      "componentType": 5126,
      "count": 65534,
      "max": [
        51.206199645996094,
        987.644287109375,
        549.7941284179688
      ],
      "min": [
        -1324.071044921875,
        481.99835205078125,
        -361.2254943847656
      ],
      "type": "VEC3"
    },
    {
      "bufferView": 2,
      "byteOffset": 2359200,
      "componentType": 5126,
      "count": 65534,
      "max": [
        0.9999237656593323,
        0.9998542070388794,
        0.999997615814209
      ],
      "min": [
        -0.9987521171569824,
        -0.9996548891067505,
        -0.9999906420707703
      ],
      "type": "VEC3"
    },
    {
      "bufferView": 3,
      "byteOffset": 1048528,
      "componentType": 5126,
      "count": 65534,
      "max": [
        0.9999983906745911,
        0.7740500569343567,
        0.9998926520347595,
        1.0
      ],
      "min": [
        -0.9633437395095825,
        -0.9135374426841736,
        -0.9999879002571106,
        1.0
      ],
      "type": "VEC4"
    },
    {
      "bufferView": 1,
      "byteOffset": 524264,
      "componentType": 5126,
      "count": 65534,
      "max": [
        0.9533565044403076,
        0.7066831588745117
      ],
      "min": [
        0.2326575070619583,
        0.0031919307075440884
      ],
      "type": "VEC2"
    },
    {
      "bufferView": 0,
      "byteOffset": 1315200,
      "componentType": 5125,
      "count": 98298,
      "type": "SCALAR"
    },
    {
      "bufferView": 2,
      "byteOffset": 3145608,
      "componentType": 5126,
      "count": 6487,
      "max": [
        14.910300254821777,
        987.941162109375,
        -2.3375484943389893
      ],
      "min": [
        -1320.1773681640625,
        481.9293518066406,
        -359.18939208984375
      ],
      "type": "VEC3"
    },
    {
      "bufferView": 2,
      "byteOffset": 3223452,
      "componentType": 5126,
      "count": 6487,
      "max": [
        0.9964473843574524,
        0.9992278814315796,
        0.9639400243759155
      ],
      "min": [
        -0.9978132247924805,
        -0.9988864660263062,
        -0.9361518621444702
      ],
      "type": "VEC3"
    },
    {
      "bufferView": 3,
      "byteOffset": 2097072,
      "componentType": 5126,
      "count": 6487,
      "max": [
        0.9924569725990295,
        0.8203802108764648,
        0.9969305992126465,
        1.0
      ],
      "min": [
        -0.9633418917655945,
        -0.831554114818573,
        -0.9992079138755798,
        1.0
      ],
      "type": "VEC4"
    },
    {
      "bufferView": 1,
      "byteOffset": 1048536,
      "componentType": 5126,
      "count": 6487,
      "max": [
        0.40496641397476196,
        0.7059450149536133
      ],
      "min": [
        0.23341578245162964,
        0.6621958017349243
      ],
      "type": "VEC2"
    },
    {
      "bufferView": 0,
      "byteOffset": 1708392,
      "componentType": 5125,
      "count": 9729,
      "type": "SCALAR"
    }
  ],
  "asset": {
    "extras": {
      "author": "Eduardo Kuhn (https://sketchfab.com/eduardokuhn)",
      "license": "CC-BY-4.0 (http://creativecommons.org/licenses/by/4.0/)",
      "source": "https://sketchfab.com/3d-models/rtfktchallenge-doodles-rtfkt-rtfkt-bb7da6cc59894a95b8c302937711e174",
      "title": "#RTFKTChallenge Doodles! RTFKT rtfkt"
    },
    "generator": "Sketchfab-12.68.0",
    "version": "2.0"
  },
  "bufferViews": [
    {
      "buffer": 0,
      "byteLength": 1747308,
      "name": "floatBufferViews",
      "target": 34963
    },
    {
      "buffer": 0,
      "byteLength": 1100432,
      "byteOffset": 1747308,
      "byteStride": 8,
      "name": "floatBufferViews",
      "target": 34962
    },
    {
      "buffer": 0,
      "byteLength": 3301296,
      "byteOffset": 2847740,
      "byteStride": 12,
      "name": "floatBufferViews",
      "target": 34962
    },
    {
      "buffer": 0,
      "byteLength": 2200864,
      "byteOffset": 6149036,
      "byteStride": 16,
      "name": "floatBufferViews",
      "target": 34962
    }
  ],
  "buffers": [
    {
      "byteLength": 8349900,
      "uri": "scene.bin"
    }
  ],
  "images": [
    {
      "uri": "textures/Shoes_baseColor.jpeg"
    },
    {
      "uri": "textures/Shoes_metallicRoughness.png"
    },
    {
      "uri": "textures/Shoes_normal.jpeg"
    }
  ],
  "materials": [
    {
      "doubleSided": true,
      "name": "Shoes",
      "normalTexture": {
        "index": 2
      },
      "occlusionTexture": {
        "index": 1
      },
      "pbrMetallicRoughness": {
        "baseColorTexture": {
          "index": 0
        },
        "metallicRoughnessTexture": {
          "index": 1
        }
      }
    }
  ],
  "meshes": [
    {
      "name": "Shoes_Shoes_0",
      "primitives": [
        {
          "attributes": {
            "NORMAL": 1,
            "POSITION": 0,
            "TANGENT": 2,
            "TEXCOORD_0": 3
          },
          "indices": 4,
          "material": 0,
          "mode": 4
        }
      ]
    },
    {
      "name": "Shoes_Shoes_0",
      "primitives": [
        {
          "attributes": {
            "NORMAL": 6,
            "POSITION": 5,
            "TANGENT": 7,
            "TEXCOORD_0": 8
          },
          "indices": 9,
          "material": 0,
          "mode": 4
        }
      ]
    },
    {
      "name": "Shoes_Shoes_0",
      "primitives": [
        {
          "attributes": {
            "NORMAL": 11,
            "POSITION": 10,
            "TANGENT": 12,
            "TEXCOORD_0": 13
          },
          "indices": 14,
          "material": 0,
          "mode": 4
        }
      ]
    }
  ],
  "nodes": [
    {
      "children": [
        1
      ],
      "matrix": [
        1.0,
        0.0,
        0.0,
        0.0,
        0.0,
        2.220446049250313e-16,
        -1.0,
        0.0,
        0.0,
        1.0,
        2.220446049250313e-16,
        0.0,
        0.0,
        0.0,
        0.0,
        1.0
      ],
      "name": "Sketchfab_model"
    },
    {
      "children": [
        2
      ],
      "matrix": [
        1.0,
        0.0,
        0.0,
        0.0,
        0.0,
        0.0,
        1.0,
        0.0,
        0.0,
        -1.0,
        0.0,
        0.0,
        0.0,
        0.0,
        0.0,
        1.0
      ],
      "name": "384a5035de094964ade0e228df64744f.fbx"
    },
    {
      "children": [
        3
      ],
      "name": "RootNode"
    },
    {
      "children": [
        4,
        5,
        6
      ],
      "name": "Shoes"
    },
    {
      "mesh": 0,
      "name": "Shoes_Shoes_0"
    },
    {
      "mesh": 1,
      "name": "Shoes_Shoes_0"
    },
    {
      "mesh": 2,
      "name": "Shoes_Shoes_0"
    }
  ],
  "samplers": [
    {
      "magFilter": 9729,
      "minFilter": 9987,
      "wrapS": 10497,
      "wrapT": 10497
    }
  ],
  "scene": 0,
  "scenes": [
    {
      "name": "Sketchfab_Scene",
      "nodes": [
        0
      ]
    }
  ],
  "textures": [
    {
      "sampler": 0,
      "source": 0
    },
    {
      "sampler": 0,
      "source": 1
    },
    {
      "sampler": 0,
      "source": 2
    }
  ]
}
